# xmcd
#
# Track frame offsets:
# 150
# 6460
# 15089
#
# Disc length: 521 seconds
#
# Revision: 0
# Processed by: cddbd v1.4PL0 Copyright (c) Steve Scherf et al.
# Submitted via: MacMP3 Pro 5.0 (http://mp3.act2.co.jp/)
#
DISCID=13020703
DTITLE=EMINEM - EMINEM
DYEAR=1900
DGENRE=
TTITLE0=SHORT
TTITLE1=LONG
TTITLE2=ORIGINAL
EXTD=
EXTT0=
EXTT1=
EXTT2=
PLAYORDER=
